<svg width="39" height="39" viewBox="0 0 39 39" fill="none" xmlns="http://www.w3.org/2000/svg">
<path d="M2.42595 17.3978C2.42595 17.4038 2.43189 17.4097 2.43189 17.4157C2.61622 17.8081 2.73514 18.1887 2.79459 18.5692C2.87784 19.1222 3.34162 19.5265 3.8946 19.5265H14.4605C15.0135 19.5265 15.4773 19.1222 15.5605 18.5692C15.62 18.1946 15.7389 17.8081 15.9232 17.4157C15.9232 17.4097 15.9292 17.4038 15.9351 17.3978C16.2265 16.7854 16.6665 16.1551 17.2611 15.513C18.4324 14.2524 18.373 11.9395 18.2303 10.673C18.1827 10.2449 17.8854 9.88811 17.4573 9.74541C16.2205 9.32324 14.8768 5.97568 14.7638 1.1C14.7606 0.807718 14.6419 0.528565 14.4336 0.323556C14.2252 0.118547 13.9442 0.00435773 13.6519 0.00594608H12.8195C12.207 0.00594608 11.7076 0.505406 11.7076 1.11784V7.26595C11.7076 8.6573 10.5778 9.78703 9.18649 9.78703C8.50865 9.78703 7.87838 9.52541 7.4027 9.04379C6.92703 8.57406 6.66541 7.94378 6.66541 7.26595V1.11189C6.66541 0.499459 6.16595 0 5.55351 0H4.70919C4.1027 0 3.61514 0.481622 3.5973 1.09405C3.48432 5.96973 2.14054 9.3173 0.90973 9.73946C0.481622 9.88811 0.184324 10.2449 0.136757 10.667C-0.00594593 11.9335 -0.0654053 14.2465 1.10595 15.507C1.69459 16.1492 2.13459 16.7795 2.42595 17.3978ZM14.4605 18.6168H3.8946C3.79351 18.6168 3.70432 18.5395 3.69243 18.4265C3.65676 18.1768 3.59135 17.927 3.50811 17.6714H14.853C14.7697 17.9211 14.7103 18.1768 14.6687 18.4265C14.6449 18.5395 14.5616 18.6168 14.4605 18.6168ZM1.02865 10.7681C1.04054 10.6611 1.14757 10.6076 1.19514 10.5957C3.02649 9.97135 4.38216 6.07676 4.49514 1.11784C4.49514 0.998919 4.59027 0.903784 4.70324 0.903784H5.54757C5.66054 0.903784 5.75568 0.998919 5.75568 1.11189V7.26595C5.75568 8.18757 6.11243 9.04379 6.76054 9.68595C7.07657 10.0063 7.45346 10.2602 7.86906 10.4328C8.28465 10.6054 8.73055 10.6931 9.18054 10.6908C11.0654 10.6908 12.6054 9.15676 12.6054 7.26595V1.11189C12.6054 0.998919 12.7005 0.903784 12.8135 0.903784H13.6459C13.7589 0.903784 13.8481 0.998919 13.8541 1.11784C13.967 6.07676 15.3287 9.97135 17.16 10.5957C17.2076 10.6135 17.3146 10.6611 17.3265 10.7681C17.4276 11.6659 17.5524 13.86 16.5951 14.8946C16.0124 15.5249 15.5605 16.1492 15.2335 16.7735H3.12162C2.79459 16.1492 2.3427 15.5189 1.76 14.8946C0.796757 13.86 0.927568 11.6659 1.02865 10.7681ZM15.8341 24.2178H2.52108C1.80162 24.2178 1.17135 24.7054 0.992973 25.407C0.541081 27.2562 0 29.9141 0 32.0724V36.7162C0 37.5843 0.707568 38.2859 1.56973 38.2859H6.91514C7.74162 38.2859 8.4373 37.6438 8.48487 36.8232C8.52649 36.1989 8.66919 35.1346 9.16865 34.3497C9.66811 35.1287 9.81081 36.1989 9.85243 36.8232C9.88029 37.2205 10.0578 37.5924 10.3491 37.8638C10.6405 38.1353 11.0239 38.2862 11.4222 38.2859H16.7676C17.6357 38.2859 18.3373 37.5784 18.3373 36.7162V32.0724C18.3373 29.9141 17.7962 27.2562 17.3443 25.4011C17.2634 25.0622 17.07 24.7607 16.7958 24.5458C16.5215 24.3309 16.1825 24.2153 15.8341 24.2178ZM2.52108 25.1216H15.8341C16.1432 25.1216 16.4108 25.3297 16.4881 25.6211C16.5535 25.8827 16.6189 26.1681 16.6843 26.4595H1.67081C1.73622 26.1681 1.80162 25.8887 1.86703 25.627C1.94432 25.3297 2.21189 25.1216 2.52108 25.1216ZM17.4514 36.7162C17.4514 37.0849 17.1541 37.3822 16.7854 37.3822H11.44C11.0892 37.3822 10.7919 37.1087 10.7681 36.7697C10.7027 35.7054 10.4292 34.2487 9.50162 33.3151C9.41576 33.2313 9.30053 33.1844 9.18054 33.1844C9.06055 33.1844 8.94532 33.2313 8.85946 33.3151C7.93189 34.2487 7.65838 35.7114 7.59297 36.7697C7.56919 37.1146 7.27784 37.3822 6.92108 37.3822H1.56973C1.20108 37.3822 0.903784 37.0849 0.903784 36.7162V32.0724C0.903784 30.6038 1.17135 28.8854 1.48054 27.3632H16.8746C17.1838 28.8854 17.4514 30.6038 17.4514 32.0724V36.7162ZM37.3405 32.3697C37.3227 32.2924 35.7649 24.4616 37.1146 20.6562C38.5238 16.6843 38.1254 8.16973 37.3287 5.5C36.853 3.8827 36.5795 2.13459 36.4546 1.23676C36.4068 0.89542 36.2373 0.582853 35.9772 0.356666C35.7172 0.130479 35.3841 0.00591957 35.0395 0.00594608H22.88C22.1665 0.00594608 21.56 0.535135 21.4649 1.23676C21.3459 2.13459 21.0724 3.8827 20.5908 5.5C19.7941 8.16973 19.3957 16.6903 20.8049 20.6622C22.1546 24.4676 20.5968 32.2984 20.5789 32.3935C20.5611 32.5124 20.1151 35.3308 20.3887 37.3227C20.4374 37.6636 20.6072 37.9756 20.867 38.2016C21.1269 38.4276 21.4594 38.5525 21.8038 38.5535H24.5389C25.2168 38.5535 25.8054 38.0778 25.9362 37.4178C26.1919 36.1692 26.5903 33.767 26.3703 31.6562C26.2395 30.4968 26.3108 29.2778 26.5784 27.9162C27.2622 24.3903 28.4335 17.5524 28.6238 11.3032C28.6357 10.893 28.6535 10.4411 28.9568 9.95946C29.2659 10.447 29.2778 10.9049 29.2897 11.333C29.4859 17.5584 30.6573 24.3962 31.3351 27.9222C31.6027 29.3016 31.6681 30.5265 31.5432 31.6622C31.3232 33.767 31.7216 36.1751 31.9773 37.4178C32.0432 37.7394 32.2184 38.0282 32.4731 38.2352C32.7278 38.4422 33.0464 38.5547 33.3746 38.5535H36.1097C36.8232 38.5535 37.4297 38.0243 37.5249 37.3168C37.7984 35.3249 37.3524 32.5065 37.3346 32.3876C37.3465 32.3816 37.3405 32.3757 37.3405 32.3697ZM22.88 0.903784H35.0454C35.307 0.903784 35.527 1.09405 35.5627 1.34973C35.6043 1.65892 35.6638 2.07514 35.747 2.54486C33.5887 2.78865 31.3114 2.91946 28.9687 2.91946C26.6259 2.91946 24.3487 2.78865 22.1843 2.54486C22.2616 2.07514 22.327 1.65892 22.3687 1.34973C22.3984 1.1 22.6184 0.903784 22.88 0.903784ZM36.6389 37.1978C36.6032 37.4535 36.3773 37.6497 36.1157 37.6497H33.3805C33.261 37.6509 33.1448 37.6107 33.0516 37.5359C32.9584 37.4612 32.8939 37.3564 32.8692 37.2395C32.6254 36.0443 32.2389 33.7432 32.447 31.7573C32.5838 30.5324 32.5124 29.2184 32.227 27.7497C31.5492 24.2535 30.3897 17.4692 30.1935 11.2973C30.1816 10.7086 30.1578 9.81676 29.2778 8.92487C29.192 8.84102 29.0768 8.79407 28.9568 8.79406C28.8378 8.79406 28.7189 8.84162 28.6357 8.93081C27.7735 9.81081 27.7438 10.6908 27.72 11.3092C27.5357 17.4692 26.3703 24.2535 25.6924 27.7497C25.407 29.2005 25.3357 30.5087 25.4724 31.7573C25.6805 33.7432 25.3 36.0443 25.0503 37.2395C25.0256 37.3564 24.9611 37.4612 24.8679 37.5359C24.7747 37.6107 24.6584 37.6509 24.5389 37.6497H21.8038C21.5422 37.6497 21.3162 37.4535 21.2805 37.1978C21.0308 35.3368 21.4649 32.56 21.4649 32.5541C21.5303 32.2211 23.0941 24.4022 21.6551 20.3589C20.3232 16.613 20.7038 8.27081 21.453 5.76162C21.6849 4.9827 21.8632 4.18 22.0119 3.44865C24.2297 3.70432 26.5605 3.83514 28.9627 3.83514C31.3649 3.83514 33.6957 3.70432 35.9076 3.44865C36.0503 4.18 36.2346 4.9827 36.4665 5.76162C37.2157 8.27081 37.5962 16.613 36.2643 20.3589C34.8432 24.3665 36.3595 32.0903 36.4546 32.5422C36.4784 32.7146 36.8887 35.3843 36.6389 37.1978Z" fill="#292929"/>
</svg>
