<svg width="147" height="60" viewBox="0 0 147 60" fill="none" xmlns="http://www.w3.org/2000/svg">
<path d="M41.8097 59.69C41.6598 59.5829 41.5955 59.3688 41.5634 58.8334L41.5206 58.1268H42.1737H42.8268V58.5015V58.8763H43.5227H44.2187V58.2339V57.5915H43.3514C42.4092 57.5915 41.9167 57.4309 41.6491 57.0347C41.4028 56.66 41.3493 52.645 41.5848 52.0882C41.8418 51.4887 42.2593 51.3495 43.3193 51.5315C43.8011 51.6171 44.1758 51.6385 44.1973 51.585C44.2187 51.5315 44.5185 51.4887 44.8718 51.4887H45.5035V55.493C45.5035 58.994 45.4821 59.5294 45.3322 59.6686C45.1073 59.9041 42.1202 59.9148 41.8097 59.69ZM44.1973 54.5722L44.1651 52.6129L43.587 52.5807C43.1908 52.5593 42.9767 52.5914 42.9232 52.6878C42.8696 52.7628 42.8268 53.6086 42.8268 54.5615C42.8268 56.5315 42.8161 56.5101 43.7155 56.5208H44.2187L44.1973 54.5722Z" fill="white"/>
<path d="M9.47701 57.2494C9.42348 56.9175 8.13867 48.1594 8.13867 48.0952C8.13867 48.0202 9.53054 48.0738 9.53054 48.1487C9.54125 48.1915 9.72326 49.5941 9.9374 51.2644L10.3443 54.3158L10.7404 51.532C10.9652 50.0117 11.1794 48.5984 11.2115 48.4164C11.265 48.0738 11.2757 48.0631 11.8432 48.0631C12.2072 48.0631 12.4214 48.1059 12.4214 48.1808C12.4214 48.4378 13.2993 54.3265 13.3421 54.3693C13.3635 54.3907 13.385 54.2408 13.385 54.016C13.385 53.6412 13.9738 48.8232 14.0916 48.3093C14.1344 48.0845 14.1987 48.0631 14.8304 48.0631H15.5263L15.4728 48.3628C15.3978 48.7697 14.1344 57.41 14.1344 57.5064C14.1344 57.6134 12.7426 57.6134 12.7426 57.5171C12.7318 57.4635 12.5284 56.1359 12.2715 54.5406L11.8218 51.6498L11.6398 52.8275C11.5434 53.4806 11.3293 54.8083 11.1794 55.804L10.8903 57.592H10.2158H9.54125L9.47701 57.2494Z" fill="white"/>
<path d="M16.4448 57.3565C16.3056 57.1745 16.2735 56.8105 16.2735 55.7719C16.2735 53.9304 16.252 53.9518 17.7831 53.9518H18.9501V53.2023V52.4529H18.2542H17.5583V52.8811V53.3094H16.9694H16.3805V52.5706C16.3805 51.4893 16.3805 51.4893 18.297 51.4893C19.6996 51.4893 19.903 51.5107 20.0529 51.682C20.2135 51.8533 20.2349 52.228 20.2349 54.7334V57.5921H19.6032C19.2499 57.5921 18.9501 57.5492 18.9287 57.485C18.9073 57.4208 18.6825 57.4208 18.2542 57.485C17.1621 57.667 16.6268 57.6242 16.4448 57.3565ZM18.5861 56.5214H18.9501V55.6649V54.8083H18.2542H17.5583V55.7291V56.6606L17.8902 56.5856C18.0722 56.5535 18.3934 56.5214 18.5861 56.5214Z" fill="white"/>
<path d="M21.3066 54.5404V51.489H21.9919C22.3666 51.489 22.6985 51.5318 22.7199 51.5854C22.7413 51.6389 23.1375 51.6068 23.6086 51.5318C25.0112 51.2856 25.1611 51.4141 25.1611 52.8916V53.9515H24.5186H23.8762V53.2556V52.5597H23.2874H22.6985V55.0757V57.5918H22.0026H21.3066V54.5404Z" fill="white"/>
<path d="M26.0176 54.5401V51.4887H26.7028C27.0775 51.4887 27.4094 51.5316 27.4309 51.5851C27.4523 51.6279 27.9127 51.6065 28.4587 51.5208C29.3259 51.3924 29.508 51.3924 29.7756 51.5316C30.0433 51.6707 30.2146 51.6707 31.114 51.5316C31.9491 51.4031 32.1953 51.4031 32.4202 51.5101L32.7093 51.6493L32.7414 54.6258L32.7628 57.5915H32.1204H31.478V55.0755V52.5594H30.7821H30.0861V55.0755V57.5915H29.3902H28.6943V55.0755V52.5594H28.0519H27.4094V55.0755V57.5915H26.7135H26.0176V54.5401Z" fill="white"/>
<path d="M33.9395 54.5407V51.4893H34.5819H35.2243V54.5407V57.5921H34.5819H33.9395V54.5407Z" fill="white"/>
<path d="M36.2949 54.5402V51.4888H36.9802C37.3549 51.4888 37.6868 51.5316 37.7082 51.5851C37.7296 51.628 38.1793 51.6066 38.7253 51.5316C39.8388 51.3603 40.2029 51.4352 40.3635 51.8635C40.4277 52.0241 40.4705 53.341 40.4705 54.8721V57.5916H39.7746H39.0787V55.0755V52.5594H38.3827H37.6868V55.0755V57.5916H36.9909H36.2949V54.5402Z" fill="white"/>
<path d="M50.7498 55.7076C50.7498 53.8339 50.7498 53.8018 50.3858 52.7311C49.9254 51.4035 48.9297 48.2343 48.9297 48.1379C48.9297 48.0951 49.2402 48.063 49.6149 48.063H50.3109L50.4715 48.6304C50.5571 48.9302 50.8034 49.851 51.0282 50.654C51.253 51.4677 51.4565 52.0994 51.4886 52.0673C51.5207 52.0352 51.7991 51.1358 52.0989 50.0651L52.6342 48.1165L53.3623 48.0844C54.0154 48.0523 54.0796 48.0737 54.0261 48.245C53.994 48.3521 53.555 49.7118 53.0518 51.2643L52.1417 54.0802V55.8361V57.5919H51.4458H50.7498V55.7076Z" fill="white"/>
<path d="M55.0004 57.3994C54.8398 57.228 54.8184 56.864 54.8184 54.5193C54.8184 52.0674 54.8291 51.8319 55.0111 51.6713C55.1824 51.5214 55.4715 51.4893 56.8098 51.4893C58.0304 51.4893 58.4693 51.5214 58.6299 51.6392C58.8227 51.789 58.8334 51.9389 58.8334 54.4657C58.8334 56.9497 58.8227 57.1531 58.6299 57.3672C58.4372 57.5814 58.3194 57.5921 56.7991 57.5921C55.3644 57.5921 55.1503 57.5707 55.0004 57.3994ZM57.495 54.5407V52.5599H56.7991H56.1032V54.5407V56.5214H56.7991H57.495V54.5407Z" fill="white"/>
<path d="M60.0501 57.4101C59.9323 57.2816 59.8895 56.6071 59.8681 54.3587L59.8359 51.4893H60.5319H61.2385V54.0053V56.5214H61.6025C61.7953 56.5214 62.1165 56.4893 62.2985 56.4572L62.6304 56.3929V53.9411V51.4893H63.3263H64.0223V54.5407V57.5921H63.337C62.9623 57.5921 62.6304 57.5385 62.609 57.485C62.5876 57.4101 62.3948 57.4101 61.9987 57.485C61.0993 57.6563 60.2214 57.6242 60.0501 57.4101Z" fill="white"/>
<path d="M65.0957 54.5409V51.4895H65.7274C66.0807 51.4895 66.3805 51.5323 66.4019 51.5858C66.4233 51.6394 66.8302 51.618 67.3227 51.5323C68.7574 51.3075 68.9501 51.4788 68.9501 53.0527V53.952H68.2542H67.5582V53.2561V52.5602H66.9694H66.3805V55.0762V57.5923H65.7381H65.0957V54.5409Z" fill="white"/>
<path d="M72.377 52.8275V48.063H73.0729H73.7688V52.2386V56.4142H74.9466H76.1243V57.0031V57.5919H74.2506H72.377V52.8275Z" fill="white"/>
<path d="M76.9824 54.5407V51.4893H77.6784H78.3743V54.5407V57.5921H77.6784H76.9824V54.5407Z" fill="white"/>
<path d="M79.7635 55.0759V52.5598H79.4423C79.1318 52.5598 79.1211 52.5491 79.1211 52.0245C79.1211 51.4999 79.1318 51.4892 79.4423 51.4892H79.7635V49.9581C79.7635 48.0309 79.7421 48.063 81.134 48.063H82.119V48.6519V49.2408H81.5836H81.0483V50.365V51.4892H81.5301H82.0119V52.0245V52.5598H81.5301H81.0483V55.0759V57.592H80.4059H79.7635V55.0759Z" fill="white"/>
<path d="M82.9363 57.4203C82.6686 57.1527 82.6472 56.9171 82.6793 54.2833C82.7115 51.9599 82.7222 51.7779 82.9149 51.6387C83.2361 51.4139 86.2126 51.4246 86.4481 51.6601C86.5873 51.7886 86.6194 52.0884 86.6194 53.1376C86.6194 54.8293 86.6408 54.8079 85.0884 54.8079H83.9427V55.718V56.628H84.6387H85.3346V56.0927V55.5574H85.977H86.6194V56.3925C86.6194 57.5916 86.6194 57.5916 84.6601 57.5916C83.386 57.5916 83.0755 57.5595 82.9363 57.4203ZM85.3346 53.2019V52.4524H84.6387H83.9427V53.2019V53.9514H84.6387H85.3346V53.2019Z" fill="white"/>
<path d="M90.8984 54.4869V53.6304H118.468H146.038V54.4869V55.3434H118.468H90.8984V54.4869Z" fill="white"/>
<path d="M33.9395 49.8297V49.1338H34.5819H35.2243V49.8297V50.5257H34.5819H33.9395V49.8297Z" fill="white"/>
<path d="M76.9824 49.8297V49.1338H77.6784H78.3743V49.8297V50.5257H77.6784H76.9824V49.8297Z" fill="white"/>
<path d="M81.9706 44.6902C80.6108 44.4975 78.9834 44.0799 77.9984 43.6624L77.2168 43.3412L77.3667 42.6988C77.6772 41.3604 78.3517 38.7266 78.3945 38.6837C78.4267 38.6623 78.8656 38.8122 79.3795 39.0264C80.9106 39.6473 82.613 40.0328 84.1547 40.1077C85.7607 40.172 86.5316 40.0542 87.4738 39.5831C88.3946 39.112 88.7907 38.5124 88.8443 37.4632C88.8871 36.8208 88.855 36.6602 88.5873 36.1784C88.0734 35.2362 87.1205 34.658 84.4759 33.6623C80.2361 32.067 78.159 30.097 77.6558 27.2169C77.4631 26.082 77.5915 24.7864 77.9984 23.7051C78.9941 21.0498 81.4031 19.2725 84.7971 18.6622C86.0284 18.4481 88.6087 18.4481 90.0434 18.6729C91.0713 18.8335 93.2019 19.4438 93.5659 19.6794C93.6944 19.765 93.6195 20.1504 93.0948 22.0777L92.4631 24.3796L92.0884 24.1976C90.6216 23.4588 87.9235 23.0091 86.2532 23.2233C84.4117 23.4588 83.4053 24.3261 83.4053 25.6858C83.4053 27.1205 84.3046 27.8272 87.9663 29.2511C90.5252 30.2469 91.703 30.9428 92.8914 32.1634C94.1548 33.4589 94.7544 34.9792 94.7544 36.8743C94.7544 38.1591 94.5295 39.1548 93.9942 40.2469C93.3625 41.521 92.0991 42.7844 90.7394 43.4803C88.8657 44.4332 87.5381 44.733 84.9042 44.7973C83.6301 44.8294 82.6986 44.7973 81.9706 44.6902Z" fill="white"/>
<path d="M106.402 44.6795C101.97 43.8765 99.3572 40.6645 98.8219 35.3325C98.7577 34.6794 98.7148 31.0605 98.7148 26.5316V18.8335H101.606H104.486L104.518 27.2704C104.561 35.5359 104.561 35.7073 104.786 36.521C105.267 38.234 105.942 39.2083 107.045 39.7972C108.576 40.6216 110.878 40.3861 112.12 39.294C112.623 38.855 113.115 38.0841 113.383 37.2918C113.876 35.8786 113.918 35.1291 113.918 26.735V18.8335H116.756H119.593V26.9492C119.593 33.4696 119.561 35.2576 119.432 36.0713C118.694 40.9964 116.006 43.8872 111.456 44.6902C110.31 44.8936 107.537 44.8829 106.402 44.6795Z" fill="white"/>
<path d="M4.07925 31.7671C1.83085 24.7435 0 18.9618 0 18.9083C0 18.8655 1.40258 18.8441 3.11565 18.8548L6.242 18.8869L7.93366 24.7756C10.1071 32.3238 10.621 34.2082 11.1671 36.6814C11.4133 37.7842 11.6596 38.7157 11.7131 38.7478C11.7774 38.7799 12.0022 38.0091 12.227 37.0455C12.8909 34.1547 13.5226 31.9062 15.5033 25.236L17.3984 18.8869L20.4284 18.8548C22.2592 18.8441 23.4477 18.8655 23.4477 18.9297C23.4477 18.9833 21.5205 24.7542 19.165 31.7456C16.8095 38.7371 14.8823 44.4759 14.8823 44.4973C14.8823 44.5187 13.3727 44.5294 11.5311 44.5294H8.16921L4.07925 31.7671Z" fill="white"/>
<path d="M26.3398 31.6815V18.8335H29.2307H32.1215V31.6815V44.5296H29.2307H26.3398V31.6815Z" fill="white"/>
<path d="M37.1523 31.6815V18.8335H45.0753H52.9983V21.189V23.5444H47.9661H42.934V26.2747V29.0049H47.6449H52.3559V31.3068V33.6087H47.6449H42.934V36.7137V39.8186H48.1802H53.4265V42.1741V44.5296H45.2894H37.1523V31.6815Z" fill="white"/>
<path d="M62.6335 34.0905V23.6515H59.2074H55.7812V21.2425V18.8335H65.5779H75.3745V21.2425V23.6515H71.8948H68.4152V34.0905V44.5296H65.5243H62.6335V34.0905Z" fill="white"/>
<path d="M124.842 31.6815V18.8335H128.204H131.566L134.435 23.8978C137.486 29.2511 139.242 32.6344 140.356 35.2683C140.731 36.1569 141.073 36.9171 141.127 36.9706C141.255 37.1205 141.244 36.4246 141.052 33.6623C140.945 32.1847 140.87 28.9727 140.827 25.0755L140.773 18.8335H143.407H146.041V31.6815V44.5296L143.032 44.5082L140.013 44.476L136.865 38.8015C133.953 33.5552 131.362 28.5552 130.495 26.4995C130.131 25.6322 129.788 25.2575 129.917 25.8571C130.002 26.2425 130.195 37.1312 130.195 41.4032V44.5296H127.518H124.842V31.6815Z" fill="white"/>
<path d="M107.525 16.007C103.853 15.3004 101.037 12.7843 100.266 9.49734C100.062 8.6301 100.062 6.8742 100.266 6.01767C100.844 3.55513 102.793 1.36025 105.352 0.310996C106.304 -0.0851519 106.529 -0.106565 105.823 0.268169C104.12 1.16753 102.91 2.68788 102.557 4.36883C102.386 5.21466 102.482 6.75643 102.761 7.53802C104.035 11.0284 108.606 12.7629 112.268 11.1248C114.088 10.3111 115.427 8.77999 115.898 6.99198C116.101 6.18897 116.101 4.81852 115.898 4.00481C115.534 2.61294 114.442 1.18895 113.167 0.439476C112.354 -0.0316184 112.6 0.0112084 113.639 0.52513C115.373 1.37096 116.701 2.64506 117.482 4.21894C119.795 8.83353 116.958 14.4545 111.615 15.8357C110.512 16.1248 108.574 16.2104 107.525 16.007Z" fill="white"/>
<path d="M111.082 10.0967C111.264 10.0004 111.585 9.74341 111.82 9.52928C113.298 8.13741 112.677 5.68558 110.643 4.9254C109.743 4.58279 108.234 4.63632 107.377 5.03247C106.167 5.59992 105.621 6.49928 105.696 7.7948C105.739 8.70486 106.081 9.26161 106.906 9.82907C107.538 10.2466 107.249 10.2038 106.21 9.70059C103.191 8.25518 102.591 4.25088 105.032 1.80975C106.028 0.814028 107.762 0.0966797 109.208 0.0966797C111.831 0.0966797 114.251 2.00247 114.765 4.46501C115.236 6.72413 114.229 8.79052 112.174 9.77553C111.756 9.97896 111.264 10.1717 111.082 10.2038L110.76 10.268L111.082 10.0967Z" fill="white"/>
</svg>
