<svg width="27" height="24" viewBox="0 0 27 24" fill="none" xmlns="http://www.w3.org/2000/svg">
<path d="M24 0C25.6406 0 27 1.35938 27 3V13.5C27 15.1875 25.6406 16.5 24 16.5H3C1.3125 16.5 0 15.1875 0 13.5V3C0 1.35938 1.3125 0 3 0H24ZM24 2.25H3C2.57812 2.25 2.25 2.625 2.25 3V13.5C2.25 13.9219 2.57812 14.25 3 14.25H24C24.375 14.25 24.75 13.9219 24.75 13.5V3C24.75 2.625 24.375 2.25 24 2.25ZM0 21C0 20.2031 0.65625 19.5 1.5 19.5H3C3.79688 19.5 4.5 20.2031 4.5 21V22.5C4.5 23.3438 3.79688 24 3 24H1.5C0.65625 24 0 23.3438 0 22.5V21ZM10.5 19.5C11.2969 19.5 12 20.2031 12 21V22.5C12 23.3438 11.2969 24 10.5 24H9C8.15625 24 7.5 23.3438 7.5 22.5V21C7.5 20.2031 8.15625 19.5 9 19.5H10.5ZM15 21C15 20.2031 15.6562 19.5 16.5 19.5H18C18.7969 19.5 19.5 20.2031 19.5 21V22.5C19.5 23.3438 18.7969 24 18 24H16.5C15.6562 24 15 23.3438 15 22.5V21ZM25.5 19.5C26.2969 19.5 27 20.2031 27 21V22.5C27 23.3438 26.2969 24 25.5 24H24C23.1562 24 22.5 23.3438 22.5 22.5V21C22.5 20.2031 23.1562 19.5 24 19.5H25.5Z" fill="white"/>
</svg>
