<svg width="23" height="21" viewBox="0 0 23 21" fill="none" xmlns="http://www.w3.org/2000/svg">
<path d="M22.2656 9.02344C22.6562 9.375 22.6953 9.96094 22.3828 10.3516C22.0312 10.7422 21.4453 10.7812 21.0547 10.4688L20.1172 9.64844V16.9141C20.1172 18.6719 18.7109 20.0391 16.9922 20.0391H5.74219C3.98438 20.0391 2.61719 18.6719 2.61719 16.9141V9.64844L1.64062 10.4688C1.25 10.7812 0.664062 10.7422 0.3125 10.3516C0 9.96094 0.0390625 9.375 0.429688 9.02344L10.7422 0.273438C11.0938 0 11.6016 0 11.9531 0.273438L22.2656 9.02344ZM5.74219 18.1641H7.61719V12.2266C7.61719 11.3672 8.28125 10.6641 9.17969 10.6641H13.5547C14.4141 10.6641 15.1172 11.3672 15.1172 12.2266V18.1641H16.9922C17.6562 18.1641 18.2422 17.6172 18.2422 16.9141V8.04688L11.3672 2.22656L4.49219 8.04688V16.9141C4.49219 17.6172 5.03906 18.1641 5.74219 18.1641ZM9.49219 18.1641H13.2422V12.5391H9.49219V18.1641Z" fill="url(#paint0_linear_42008_760)"/>
<defs>
<linearGradient id="paint0_linear_42008_760" x1="0.117188" y1="9.53906" x2="23.1172" y2="9.53906" gradientUnits="userSpaceOnUse">
<stop stop-color="#F39830"/>
<stop offset="1" stop-color="#FFC400"/>
</linearGradient>
</defs>
</svg>
