<svg width="64" height="64" viewBox="0 0 64 64" fill="none" xmlns="http://www.w3.org/2000/svg">
<path d="M47.5064 33.5999C47.139 37.1613 45.5609 40.4889 43.0356 43.027C40.5103 45.5651 37.1908 47.16 33.6312 47.5455C33.5595 47.5446 33.4884 47.5581 33.422 47.5851C33.3556 47.6122 33.2953 47.6522 33.2446 47.7029C33.194 47.7536 33.1539 47.8139 33.1269 47.8803C33.0998 47.9467 33.0864 48.0178 33.0872 48.0895V59.7311C33.0872 60.0196 32.9726 60.2964 32.7685 60.5004C32.5645 60.7044 32.2878 60.8191 31.9992 60.8191C31.7107 60.8191 31.4339 60.7044 31.2299 60.5004C31.0258 60.2964 30.9112 60.0196 30.9112 59.7311V55.5071C30.9009 55.3662 30.8402 55.2338 30.7404 55.1339C30.6405 55.0341 30.5081 54.9734 30.3672 54.9631C25.5283 54.5715 20.9383 52.6546 17.2581 49.4885C13.5778 46.3223 10.997 42.0701 9.88722 37.3439C9.84591 37.2038 9.8332 37.0569 9.84986 36.9119C9.86651 36.7668 9.91219 36.6266 9.98416 36.4996C10.0561 36.3726 10.1529 36.2613 10.2688 36.1725C10.3847 36.0837 10.5172 36.0191 10.6586 35.9826C10.7999 35.9461 10.9472 35.9384 11.0916 35.96C11.236 35.9815 11.3746 36.032 11.4991 36.1082C11.6236 36.1845 11.7314 36.285 11.8163 36.4038C11.9011 36.5227 11.9611 36.6573 11.9928 36.7999C12.9795 41.0422 15.2801 44.8648 18.5668 47.7229C21.8535 50.5809 25.9586 52.3286 30.2968 52.7167C30.4376 52.7871 30.572 52.7167 30.7064 52.5823C30.7775 52.5422 30.8349 52.4817 30.8714 52.4088C30.9079 52.3358 30.9218 52.2536 30.9112 52.1727V48.0895C30.9121 48.0178 30.8986 47.9467 30.8716 47.8803C30.8445 47.8139 30.8045 47.7536 30.7538 47.7029C30.7031 47.6522 30.6428 47.6122 30.5764 47.5851C30.51 47.5581 30.4389 47.5446 30.3672 47.5455C26.8246 47.1508 23.5189 45.5723 20.9848 43.0655C18.4513 40.5192 16.8697 37.1797 16.5048 33.6063C16.4841 33.4755 16.4184 33.3561 16.3191 33.2685C16.2198 33.1809 16.0931 33.1306 15.9608 33.1263H4.31922C4.02218 33.1263 3.7373 33.0083 3.52726 32.7982C3.31722 32.5882 3.19922 32.3033 3.19922 32.0063C3.19922 31.7092 3.31722 31.4243 3.52726 31.2143C3.7373 31.0043 4.02218 30.8863 4.31922 30.8863H8.74162C8.87358 30.8808 8.99965 30.8301 9.09868 30.7427C9.19772 30.6553 9.26372 30.5365 9.28562 30.4063C9.57603 25.5745 11.3713 20.9548 14.4197 17.1948C17.4681 13.4348 21.6167 10.7231 26.284 9.43986C26.5667 9.38622 26.8591 9.44275 27.1014 9.59786C27.3437 9.75298 27.5174 9.99492 27.587 10.2741C27.6566 10.5532 27.6167 10.8484 27.4756 11.0991C27.3345 11.3498 27.1028 11.537 26.828 11.6223C22.6524 12.7482 18.9327 15.1501 16.1881 18.4924C13.4436 21.8347 11.8113 25.9506 11.5192 30.2655C11.5012 30.345 11.5019 30.4276 11.5213 30.5067C11.5407 30.5859 11.5783 30.6594 11.6311 30.7215C11.6839 30.7836 11.7505 30.8326 11.8255 30.8645C11.9005 30.8965 11.9819 30.9105 12.0632 30.9055H15.9352C16.0675 30.9011 16.1942 30.8509 16.2935 30.7633C16.3928 30.6757 16.4585 30.5562 16.4792 30.4255C16.8416 26.8575 18.4191 23.5224 20.9475 20.9789C23.4758 18.4354 26.8015 16.838 30.3672 16.4543C30.4389 16.4551 30.51 16.4416 30.5764 16.4146C30.6428 16.3876 30.7031 16.3475 30.7538 16.2968C30.8045 16.2462 30.8445 16.1858 30.8716 16.1195C30.8986 16.0531 30.9121 15.9819 30.9112 15.9103V4.26866C30.9112 3.98011 31.0258 3.70337 31.2299 3.49933C31.4339 3.29529 31.7107 3.18066 31.9992 3.18066C32.2878 3.18066 32.5645 3.29529 32.7685 3.49933C32.9726 3.70337 33.0872 3.98011 33.0872 4.26866V17.4719C33.0945 17.6259 33.0696 17.7798 33.0139 17.9237C32.9583 18.0675 32.8732 18.1982 32.7642 18.3072C32.6551 18.4163 32.5245 18.5013 32.3806 18.557C32.2368 18.6126 32.0829 18.6376 31.9288 18.6303C20.0952 18.6303 14.1816 33.1199 22.5464 41.4911C30.9112 49.8623 45.1896 43.8719 45.3944 31.9999C45.3927 31.8565 45.4197 31.7143 45.4737 31.5815C45.5278 31.4487 45.6079 31.3281 45.7093 31.2267C45.8106 31.1253 45.9313 31.0453 46.064 30.9912C46.1968 30.9371 46.3391 30.9101 46.4824 30.9119H59.6792C59.9763 30.9119 60.2611 31.0299 60.4712 31.2399C60.6812 31.4499 60.7992 31.7348 60.7992 32.0319C60.7992 32.3289 60.6812 32.6138 60.4712 32.8238C60.2611 33.0339 59.9763 33.1519 59.6792 33.1519H55.3272C55.1922 33.1464 55.0603 33.1933 54.9589 33.2827C54.8576 33.3721 54.7946 33.4972 54.7832 33.6319C54.43 38.4938 52.5498 43.1198 49.4109 46.8494C46.272 50.5791 42.035 53.2216 37.3048 54.3999C35.8776 54.7391 35.3848 52.5631 36.8248 52.2239C41.0491 51.1736 44.8374 48.8245 47.6562 45.5074C50.4749 42.1904 52.1819 38.0727 52.5368 33.7343C52.5549 33.6548 52.5541 33.5722 52.5347 33.493C52.5153 33.4138 52.4777 33.3403 52.4249 33.2782C52.3721 33.2161 52.3056 33.1671 52.2306 33.1352C52.1556 33.1033 52.0742 33.0893 51.9928 33.0943H48.0504C47.9181 33.0986 47.7914 33.1489 47.6921 33.2365C47.5928 33.3241 47.5272 33.4435 47.5064 33.5743V33.5999ZM56.3192 15.5007L48.4536 23.3215C48.2614 23.5301 47.9946 23.6543 47.7112 23.6671H42.4696C42.3265 23.6796 42.1884 23.7256 42.0664 23.8015L32.748 33.1903C32.5385 33.386 32.2612 33.4929 31.9745 33.4883C31.6878 33.4837 31.414 33.3681 31.2108 33.1657C31.0076 32.9634 30.8909 32.6901 30.8852 32.4034C30.8794 32.1167 30.9851 31.839 31.18 31.6287L40.4984 22.2335C40.5611 22.202 40.6136 22.1535 40.6499 22.0935C40.6861 22.0334 40.7046 21.9644 40.7032 21.8943V16.6399C40.7019 16.4885 40.7313 16.3384 40.7896 16.1987C40.8479 16.059 40.9339 15.9326 41.0424 15.8271L48.8632 8.01266C49.0142 7.8494 49.2109 7.7354 49.4277 7.68551C49.6444 7.63562 49.8711 7.65215 50.0783 7.73296C50.2855 7.81377 50.4636 7.9551 50.5893 8.13855C50.715 8.322 50.7826 8.53906 50.7832 8.76146V13.0495C50.7923 13.1908 50.8525 13.3239 50.9526 13.4241C51.0527 13.5242 51.1859 13.5844 51.3272 13.5935H55.5448C55.7698 13.5876 55.9913 13.6496 56.1805 13.7714C56.3697 13.8932 56.5178 14.0692 56.6056 14.2765C56.6933 14.4837 56.7166 14.7125 56.6723 14.9332C56.6281 15.1538 56.5184 15.356 56.3576 15.5135L56.3192 15.5007ZM47.3592 21.2607L51.916 16.7039C51.9952 16.6307 52.0511 16.5359 52.0769 16.4313C52.1027 16.3266 52.0972 16.2167 52.0611 16.1151C52.025 16.0136 51.9598 15.9249 51.8737 15.86C51.7876 15.7951 51.6844 15.757 51.5768 15.7503H49.6568C49.3596 15.7572 49.0715 15.647 48.8548 15.4435C48.6381 15.2399 48.5101 14.9593 48.4984 14.6623V12.7999C48.4979 12.6896 48.465 12.582 48.4039 12.4903C48.3428 12.3986 48.2561 12.3268 48.1546 12.2839C48.053 12.2409 47.9411 12.2287 47.8328 12.2488C47.7244 12.2688 47.6243 12.3203 47.5448 12.3967L43.0648 16.9535C42.9452 17.0577 42.8716 17.2049 42.86 17.3631V20.9023C42.8592 20.9739 42.8726 21.0451 42.8997 21.1115C42.9267 21.1778 42.9668 21.2382 43.0174 21.2888C43.0681 21.3395 43.1284 21.3796 43.1948 21.4066C43.2612 21.4336 43.3323 21.4471 43.404 21.4463H47.0072C47.148 21.4463 47.2824 21.4463 47.3464 21.3055L47.3592 21.2607ZM41.2408 32.0127C41.2434 33.8426 40.703 35.6321 39.688 37.1547C38.6731 38.6774 37.2293 39.8647 35.5393 40.5664C33.8493 41.2682 31.9891 41.4528 30.1941 41.0969C28.3992 40.7409 26.7502 39.8605 25.4558 38.567C24.1614 37.2736 23.2798 35.6252 22.9227 33.8304C22.5655 32.0357 22.7488 30.1754 23.4494 28.4849C24.15 26.7944 25.3363 25.3498 26.8582 24.3338C28.3802 23.3178 30.1693 22.7762 31.9992 22.7775C32.2742 22.7985 32.5311 22.9226 32.7185 23.125C32.9059 23.3273 33.01 23.5929 33.01 23.8687C33.01 24.1444 32.9059 24.41 32.7185 24.6124C32.5311 24.8147 32.2742 24.9388 31.9992 24.9599C30.1321 24.9599 28.3414 25.7016 27.0212 27.0218C25.7009 28.3421 24.9592 30.1327 24.9592 31.9999C24.9592 33.867 25.7009 35.6576 27.0212 36.9779C28.3414 38.2981 30.1321 39.0399 31.9992 39.0399C36.0824 39.0399 38.8024 35.9807 39.0008 31.9999C38.9944 31.8455 39.0199 31.6914 39.0756 31.5472C39.1313 31.4031 39.2161 31.2719 39.3247 31.162C39.4332 31.052 39.5633 30.9655 39.7067 30.908C39.8501 30.8504 40.0039 30.823 40.1583 30.8274C40.3128 30.8318 40.4647 30.8679 40.6046 30.9335C40.7446 30.9992 40.8695 31.0929 40.9716 31.2089C41.0737 31.3249 41.1509 31.4606 41.1983 31.6077C41.2457 31.7548 41.2624 31.9101 41.2472 32.0639L41.2408 32.0127Z" fill="white"/>
</svg>
