<svg width="21" height="15" viewBox="0 0 21 15" fill="none" xmlns="http://www.w3.org/2000/svg">
<path d="M21 13.125C21 14.2031 20.1562 15 19.125 15H16.875C15.7969 15 15 14.2031 15 13.125V10.875C15 9.84375 15.7969 9 16.875 9H19.125C20.1562 9 21 9.84375 21 10.875V13.125ZM19.125 10.875H16.875V13.125H19.125V10.875ZM21 4.125C21 5.20312 20.1562 6 19.125 6H16.875C15.7969 6 15 5.20312 15 4.125V1.875C15 0.84375 15.7969 0 16.875 0H19.125C20.1562 0 21 0.84375 21 1.875V4.125ZM19.125 1.875H16.875V4.125H19.125V1.875ZM9.375 15C8.29688 15 7.5 14.2031 7.5 13.125V10.875C7.5 9.84375 8.29688 9 9.375 9H11.625C12.6562 9 13.5 9.84375 13.5 10.875V13.125C13.5 14.2031 12.6562 15 11.625 15H9.375ZM9.375 13.125H11.625V10.875H9.375V13.125ZM13.5 4.125C13.5 5.20312 12.6562 6 11.625 6H9.375C8.29688 6 7.5 5.20312 7.5 4.125V1.875C7.5 0.84375 8.29688 0 9.375 0H11.625C12.6562 0 13.5 0.84375 13.5 1.875V4.125ZM11.625 1.875H9.375V4.125H11.625V1.875ZM1.875 15C0.796875 15 0 14.2031 0 13.125V10.875C0 9.84375 0.796875 9 1.875 9H4.125C5.15625 9 6 9.84375 6 10.875V13.125C6 14.2031 5.15625 15 4.125 15H1.875ZM1.875 13.125H4.125V10.875H1.875V13.125ZM6 4.125C6 5.20312 5.15625 6 4.125 6H1.875C0.796875 6 0 5.20312 0 4.125V1.875C0 0.84375 0.796875 0 1.875 0H4.125C5.15625 0 6 0.84375 6 1.875V4.125ZM4.125 1.875H1.875V4.125H4.125V1.875Z" fill="#292929"/>
</svg>
